<?xml version="1.0" standalone="no"?>
<!DOCTYPE svg PUBLIC "-//W3C//DTD SVG 20010904//EN"
 "http://www.w3.org/TR/2001/REC-SVG-20010904/DTD/svg10.dtd">
<svg version="1.0" xmlns="http://www.w3.org/2000/svg"
 width="504.000000pt" height="163.000000pt" viewBox="0 0 504.000000 163.000000"
 preserveAspectRatio="xMidYMid meet">

<g transform="translate(0.000000,163.000000) scale(0.100000,-0.100000)"
fill="#ffcca1" stroke="none">
<path d="M328 1338 c9 -43 9 -793 0 -836 l-8 -34 303 4 c284 4 306 5 367 27
89 31 140 63 193 120 157 167 157 435 0 602 -53 57 -104 89 -193 120 -61 22
-83 23 -367 27 l-303 4 8 -34z m603 -108 c92 -29 157 -81 198 -162 30 -59 34
-75 34 -148 0 -73 -4 -89 -34 -148 -41 -81 -106 -133 -198 -162 -54 -17 -92
-20 -262 -20 l-199 0 0 330 0 330 199 0 c170 0 208 -3 262 -20z"/>
<path d="M2418 1338 c4 -18 7 -206 7 -418 0 -212 -3 -400 -7 -417 l-7 -33 78
0 78 0 -8 43 c-4 23 -8 206 -8 407 0 201 4 384 8 408 l8 42 -78 0 -78 0 7 -32z"/>
<path d="M2802 1350 c-47 -44 -13 -110 56 -110 50 0 82 23 82 61 0 63 -89 95
-138 49z"/>
<path d="M3158 1338 c4 -18 7 -206 7 -418 0 -212 -3 -400 -7 -417 l-7 -33 78
0 78 0 -8 43 c-4 23 -8 206 -8 407 0 201 4 384 8 408 l8 42 -78 0 -78 0 7 -32z"/>
<path d="M1647 1115 c-38 -8 -84 -19 -103 -25 -32 -11 -34 -14 -34 -56 0 -24
1 -44 3 -44 1 0 28 9 59 20 85 30 231 45 306 32 138 -24 175 -64 181 -192 l3
-84 -42 38 c-51 46 -111 73 -197 86 -116 19 -269 -15 -332 -73 -58 -53 -76
-149 -42 -222 35 -76 107 -118 234 -135 138 -19 283 22 348 98 l31 37 -4 -63
-4 -62 70 0 71 0 -3 197 c-1 109 -7 223 -12 253 -19 106 -87 168 -216 195 -85
18 -226 18 -317 0z m311 -325 c128 -55 135 -161 16 -221 -44 -21 -62 -24 -174
-24 -111 0 -130 3 -167 23 -126 67 -95 204 53 241 67 17 212 7 272 -19z"/>
<path d="M3697 1115 c-38 -8 -84 -19 -103 -25 -32 -11 -34 -14 -34 -56 0 -24
1 -44 3 -44 1 0 28 9 59 20 85 30 231 45 306 32 138 -24 175 -64 181 -192 l3
-84 -42 38 c-51 46 -111 73 -197 86 -116 19 -269 -15 -332 -73 -58 -53 -76
-149 -42 -222 35 -76 107 -118 234 -135 138 -19 283 22 348 98 l31 37 -4 -63
-4 -62 70 0 71 0 -3 197 c-1 109 -7 223 -12 253 -19 106 -87 168 -216 195 -85
18 -226 18 -317 0z m311 -325 c128 -55 135 -161 16 -221 -44 -21 -62 -24 -174
-24 -111 0 -130 3 -167 23 -126 67 -95 204 53 241 67 17 212 7 272 -19z"/>
<path d="M2798 845 c2 -143 -1 -286 -6 -318 l-9 -57 78 0 79 0 -8 33 c-4 17
-7 160 -7 317 l0 285 -65 0 -65 0 3 -260z"/>
</g>
</svg>
