<?xml version="1.0" standalone="no"?>
<!DOCTYPE svg PUBLIC "-//W3C//DTD SVG 20010904//EN"
 "http://www.w3.org/TR/2001/REC-SVG-20010904/DTD/svg10.dtd">
<svg version="1.0" xmlns="http://www.w3.org/2000/svg"
 width="564.000000pt" height="816.000000pt" viewBox="0 0 564.000000 816.000000"
 preserveAspectRatio="xMidYMid meet">

<g transform="translate(0.000000,816.000000) scale(0.100000,-0.100000)"
fill="#000000" stroke="none">
<path d="M102 8028 c1 -104 3 -120 8 -73 5 41 7 49 8 25 2 -27 5 -31 12 -20 7
12 10 8 10 -14 0 -55 11 -18 12 41 1 32 3 48 5 36 3 -16 11 -23 28 -23 13 0
27 5 30 11 4 6 13 8 21 5 8 -3 18 7 26 29 13 38 19 41 48 23 16 -11 23 -8 48
15 22 22 38 27 75 27 31 0 47 4 47 13 0 7 7 3 15 -7 9 -12 12 -29 9 -40 -6
-17 -5 -18 7 -6 21 22 49 68 49 80 0 6 -78 10 -230 10 l-230 0 2 -132z m35
-30 c-3 -7 -5 -2 -5 12 0 14 2 19 5 13 2 -7 2 -19 0 -25z"/>
<path d="M566 8134 c-7 -27 3 -50 11 -26 3 6 13 12 23 12 24 0 37 -40 19 -54
-8 -7 -19 -20 -26 -31 -6 -11 -16 -19 -22 -17 -6 1 -11 -9 -11 -22 0 -13 -7
-26 -15 -30 -8 -3 -15 -12 -15 -21 0 -8 -7 -15 -16 -15 -8 0 -13 -4 -10 -9 3
-5 -1 -14 -9 -21 -8 -7 -15 -16 -15 -21 0 -11 -82 -133 -92 -137 -4 -2 -8 -9
-8 -15 -1 -7 -14 -28 -30 -47 -17 -19 -30 -40 -30 -47 0 -7 -4 -13 -8 -13 -5
0 -15 -12 -23 -27 -7 -16 -35 -61 -61 -100 -27 -40 -53 -83 -58 -95 -6 -13
-25 -45 -43 -73 l-32 -50 1 -1180 1 -1180 48 -90 c26 -49 56 -108 68 -130 11
-22 23 -42 28 -45 4 -3 17 -28 29 -55 11 -28 26 -62 33 -77 7 -16 18 -28 24
-28 7 0 13 -7 13 -15 0 -8 7 -15 15 -15 9 0 20 -11 25 -24 7 -19 23 -29 61
-40 29 -9 61 -16 71 -16 10 0 18 -5 18 -12 0 -16 61 -68 80 -68 19 0 87 -24
96 -33 4 -4 16 -7 26 -7 10 0 31 -8 45 -17 26 -17 57 -30 183 -74 36 -12 100
-35 142 -51 43 -15 84 -28 92 -28 19 0 102 -27 135 -43 13 -6 55 -11 94 -11
39 0 65 -2 59 -4 -14 -4 -16 -22 -3 -22 17 0 121 101 211 205 64 74 102 109
136 124 65 31 156 41 218 23 49 -14 119 -52 130 -71 9 -14 36 -2 36 15 0 8 5
14 10 14 6 0 10 -5 10 -10 0 -6 6 -5 14 2 8 7 10 15 6 18 -12 8 -19 64 -9 81
6 12 4 21 -7 29 -9 8 -14 27 -13 49 2 43 -26 111 -45 111 -8 0 -24 9 -37 20
-19 15 -20 19 -8 20 13 0 19 16 27 63 25 146 34 175 59 188 29 16 29 25 1 33
l-23 6 25 15 25 14 -23 1 c-15 0 -26 7 -29 20 -3 11 -10 20 -17 21 -24 2 -62
-3 -92 -12 -16 -5 -65 -11 -108 -14 -51 -3 -85 -10 -96 -20 -19 -17 -56 -20
-65 -5 -3 6 -17 10 -31 10 -19 0 -24 -5 -24 -24 0 -22 -4 -23 -52 -22 -40 1
-53 5 -53 16 0 10 12 16 33 18 31 3 32 5 32 48 0 56 -27 126 -40 104 -10 -16
-15 -8 -22 35 -3 16 -10 19 -38 17 -19 -1 -40 -9 -46 -17 -6 -8 -23 -15 -37
-15 -16 0 -31 -8 -37 -20 -6 -11 -17 -20 -24 -20 -24 0 -28 -32 -8 -54 26 -28
45 -66 34 -66 -5 0 -6 -17 -3 -37 5 -29 12 -38 31 -43 20 -5 25 -12 25 -35 0
-25 -7 -33 -44 -51 -24 -12 -48 -33 -55 -45 -7 -15 -21 -24 -39 -26 -16 -1
-47 -11 -70 -22 -36 -17 -51 -19 -102 -12 -74 11 -95 19 -95 37 0 9 -11 14
-29 14 -35 0 -52 -19 -19 -21 13 -1 5 -5 -17 -8 -45 -7 -145 3 -154 16 -3 4
-16 8 -28 9 -86 2 -104 6 -120 22 -10 10 -30 23 -46 30 -18 8 -29 22 -34 42
-4 24 -10 29 -24 25 -11 -4 -19 -2 -19 4 0 19 -4 25 -33 57 -15 18 -33 39 -40
47 -15 20 -87 57 -109 57 -27 0 -68 22 -68 37 0 7 -8 16 -17 20 -27 10 -72 56
-73 74 0 9 -7 19 -15 23 -8 3 -15 17 -15 30 0 23 -39 153 -60 201 -4 11 -9 27
-9 35 -5 69 -12 105 -24 119 -11 11 -13 31 -10 69 3 28 9 52 13 52 4 0 11 21
15 47 6 43 37 103 57 111 4 2 4 10 1 17 -3 9 5 19 21 26 22 10 24 15 13 27
-10 13 -9 15 3 10 13 -4 15 11 17 96 1 55 5 111 8 123 3 13 1 23 -4 23 -6 0
-7 8 -4 18 8 21 33 47 34 35 0 -4 9 11 19 33 15 35 24 42 57 49 21 4 41 12 44
17 4 7 16 3 30 -11 12 -11 31 -21 42 -21 14 0 18 -5 14 -20 -3 -10 1 -24 9
-31 8 -6 14 -17 14 -25 0 -7 9 -18 20 -24 11 -6 20 -17 20 -24 0 -19 39 -104
50 -111 6 -3 10 -18 10 -33 0 -15 9 -44 20 -65 11 -20 20 -43 20 -50 0 -8 9
-22 20 -32 24 -21 26 -53 5 -61 -19 -8 -19 -38 -1 -53 7 -6 16 -24 19 -40 5
-22 13 -30 38 -35 36 -7 95 8 128 33 20 15 22 21 12 40 -7 12 -23 26 -35 31
-16 6 -25 19 -29 42 -8 53 -27 121 -37 133 -4 5 -10 48 -13 95 -5 99 -21 167
-46 195 -22 23 -51 79 -51 96 0 7 -16 46 -36 87 l-36 74 17 54 c9 30 20 56 25
59 4 2 20 30 35 60 16 31 45 72 64 92 21 22 36 48 37 63 1 48 16 120 25 120 5
0 9 14 9 30 0 17 4 30 9 30 5 0 13 10 16 23 4 12 23 45 41 74 19 28 34 55 34
60 0 4 18 32 40 61 22 29 40 55 40 58 0 3 14 23 30 44 17 21 30 45 30 53 0 8
3 17 8 19 4 2 24 28 45 58 20 30 52 71 70 91 44 48 80 99 95 132 12 29 2 36
-18 12 -7 -8 -19 -15 -27 -15 -8 0 -12 -3 -10 -8 8 -11 -35 -59 -60 -66 -21
-7 -21 -5 -12 26 5 18 17 44 27 58 31 43 97 207 97 243 0 4 6 11 13 16 7 4 14
22 16 39 3 17 12 42 20 54 9 12 16 32 16 43 0 11 7 29 15 39 8 11 15 23 15 28
0 4 -193 8 -429 8 l-429 0 -6 -26z m1144 -3250 c0 -2 -7 -4 -15 -4 -8 0 -15 4
-15 10 0 5 7 7 15 4 8 -4 15 -8 15 -10z m290 -234 c0 -5 -5 -10 -11 -10 -5 0
-7 5 -4 10 3 6 8 10 11 10 2 0 4 -4 4 -10z"/>
<path d="M5150 8156 c0 -2 71 -39 158 -81 86 -43 159 -81 162 -85 3 -3 12 -9
22 -13 19 -7 25 22 28 121 l1 62 -185 0 c-103 0 -186 -2 -186 -4z"/>
<path d="M4302 7903 c-45 -9 -15 -28 59 -38 41 -6 81 -15 89 -20 8 -6 22 -10
30 -10 18 0 122 -32 165 -50 17 -7 48 -16 70 -19 22 -4 54 -13 70 -21 75 -34
126 -55 136 -55 6 0 17 -7 25 -15 9 -8 24 -15 35 -15 10 0 19 -5 19 -10 0 -6
12 -16 28 -23 15 -6 29 -14 32 -18 3 -3 18 -9 35 -13 l30 -8 -26 24 c-57 51
-78 66 -125 90 -27 15 -56 29 -64 32 -8 3 -22 10 -30 15 -41 25 -139 71 -151
71 -8 0 -27 7 -43 15 -42 22 -129 42 -236 55 -52 6 -102 12 -110 14 -8 2 -25
1 -38 -1z"/>
<path d="M5122 7568 c3 -7 15 -15 28 -16 21 -3 22 -2 11 12 -16 19 -44 21 -39
4z"/>
<path d="M1026 5811 c-4 -5 3 -7 14 -4 23 6 26 13 6 13 -8 0 -17 -4 -20 -9z"/>
<path d="M3120 4760 c0 -6 7 -10 15 -10 8 0 15 2 15 4 0 2 -7 6 -15 10 -8 3
-15 1 -15 -4z"/>
<path d="M3160 4732 c0 -4 7 -17 15 -27 45 -57 105 -147 127 -186 28 -53 47
-83 107 -172 69 -101 81 -123 86 -147 2 -11 26 -43 54 -70 70 -68 141 -158
141 -177 0 -9 6 -24 13 -32 8 -9 20 -38 27 -66 7 -27 19 -61 26 -75 7 -14 19
-50 27 -80 50 -188 64 -234 94 -315 19 -49 40 -103 48 -120 7 -16 16 -48 19
-70 4 -22 11 -47 16 -55 20 -31 9 80 -25 270 -19 106 -32 197 -29 202 10 16
34 -28 75 -135 81 -209 220 -450 251 -431 4 3 8 -1 8 -8 0 -7 8 -22 17 -33 15
-19 15 -19 9 8 -7 29 2 35 22 15 16 -16 15 -8 -2 34 -16 38 -39 62 -49 51 -4
-3 -7 1 -7 11 0 9 -7 19 -15 22 -8 4 -15 12 -15 20 0 8 -4 14 -8 14 -5 0 -14
16 -22 35 -7 19 -18 31 -23 28 -5 -3 -6 3 -3 15 5 15 2 20 -11 18 -13 -1 -22
15 -36 62 -10 34 -23 60 -28 56 -5 -3 -9 1 -9 9 0 8 -7 17 -15 21 -9 3 -12 12
-9 21 7 18 -12 62 -36 83 -8 8 -9 11 -2 7 14 -7 17 21 2 30 -6 4 -8 11 -4 16
3 6 -1 18 -9 27 -8 9 -17 37 -21 62 -15 106 -36 204 -44 209 -5 3 -12 20 -16
36 -9 38 -47 115 -57 115 -8 0 -21 37 -23 65 -1 11 -6 19 -13 18 -29 -6 -146
208 -165 301 -13 68 -36 96 -76 96 -15 0 -32 4 -37 9 -6 5 -34 16 -63 26 -31
10 -66 31 -86 51 -18 19 -38 34 -45 34 -15 0 -96 45 -130 71 -13 10 -20 19
-15 19 11 0 -17 20 -28 20 -5 0 -8 -4 -8 -8z"/>
<path d="M3945 4700 c3 -5 8 -10 11 -10 2 0 4 5 4 10 0 6 -5 10 -11 10 -5 0
-7 -4 -4 -10z"/>
<path d="M4646 4674 c-20 -19 -41 -34 -45 -34 -5 0 -16 -21 -26 -46 -16 -44
-16 -46 1 -59 24 -18 25 -18 52 1 12 8 26 12 32 9 13 -8 50 17 50 33 0 7 4 10
10 7 5 -3 19 9 30 27 22 36 16 48 -37 80 -29 17 -29 16 -67 -18z"/>
<path d="M2160 4656 c0 -9 7 -16 16 -16 9 0 14 5 12 12 -6 18 -28 21 -28 4z"/>
<path d="M4480 4552 c0 -7 -7 -12 -15 -12 -8 0 -15 -9 -15 -20 0 -11 7 -20 15
-20 8 0 15 -4 15 -10 0 -10 -16 -13 -70 -13 -14 0 -28 -6 -32 -13 -9 -13 -48
-7 -48 7 0 17 -19 9 -25 -11 -4 -11 -11 -18 -16 -15 -5 4 -9 -5 -9 -19 0 -14
6 -26 13 -26 6 0 4 -5 -5 -11 -10 -5 -18 -14 -18 -20 0 -5 9 -4 20 3 16 10 24
10 40 0 29 -18 39 -15 32 10 -4 18 -2 20 18 15 17 -4 28 0 42 18 15 19 25 23
47 19 l29 -6 -5 63 c-3 35 -7 66 -9 68 -2 2 -4 -1 -4 -7z m-147 -132 c-3 -11
-9 -20 -14 -20 -10 0 -12 24 -2 33 13 13 21 7 16 -13z"/>
<path d="M2765 4527 c-27 -12 -58 -27 -67 -32 -30 -18 -140 -127 -134 -133 10
-10 -25 -41 -40 -35 -11 4 -12 0 -5 -18 13 -36 46 -35 82 1 36 35 77 55 140
65 24 4 59 16 77 27 39 24 131 28 211 8 79 -19 80 -8 3 43 -39 26 -72 53 -74
59 -2 6 -18 11 -36 11 -17 0 -33 6 -36 14 -8 20 -64 15 -121 -10z"/>
<path d="M2253 4404 c-17 -17 -16 -24 1 -24 15 0 30 27 18 34 -4 2 -13 -2 -19
-10z"/>
<path d="M4298 4353 c7 -3 16 -2 19 1 4 3 -2 6 -13 5 -11 0 -14 -3 -6 -6z"/>
<path d="M1977 4303 c-14 -13 -6 -20 16 -16 14 3 31 -2 40 -11 18 -18 27 -20
27 -7 0 28 -63 54 -83 34z"/>
<path d="M1887 4188 c-36 -35 -75 -73 -88 -84 -37 -33 -98 -110 -107 -135 -10
-26 26 -71 58 -74 20 -1 60 -29 121 -82 48 -43 70 -42 94 4 11 21 37 66 58
101 l38 63 -31 29 c-30 28 -38 54 -20 65 6 4 8 11 4 16 -3 6 4 21 16 34 27 29
18 49 -39 94 l-40 32 -64 -63z"/>
<path d="M2071 4216 c-8 -9 -8 -21 -2 -37 5 -13 10 -22 10 -19 1 3 5 20 10 38
10 33 2 42 -18 18z"/>
<path d="M2125 4160 c-3 -5 -1 -10 4 -10 6 0 11 5 11 10 0 6 -2 10 -4 10 -3 0
-8 -4 -11 -10z"/>
<path d="M2721 4139 c-13 -10 -29 -19 -37 -19 -16 0 -49 -60 -37 -69 4 -3 13
-15 19 -26 6 -11 23 -21 38 -23 17 -2 26 -9 26 -21 0 -9 9 -34 20 -56 24 -48
27 -90 5 -81 -23 8 -43 -3 -49 -29 -4 -17 -19 -28 -53 -39 -50 -17 -93 -21
-93 -8 0 5 -33 9 -72 9 -49 0 -65 -2 -48 -7 22 -7 11 -15 -14 -11 -4 1 -14 -3
-21 -9 -11 -9 -12 -6 -8 12 5 19 3 21 -8 11 -7 -7 -21 -13 -31 -13 -10 0 -18
-4 -18 -9 0 -8 -39 -19 -82 -24 -10 -1 -18 -5 -18 -10 0 -5 -7 -6 -16 -3 -9 3
-24 -4 -39 -20 -13 -13 -25 -21 -27 -15 -1 5 -16 7 -31 4 -21 -4 -27 -10 -25
-27 3 -18 -1 -21 -29 -18 -24 2 -35 -2 -45 -17 -18 -29 -28 -26 -28 8 0 25 -3
28 -21 24 -14 -4 -17 -8 -9 -13 7 -4 14 -21 16 -37 3 -26 0 -30 -19 -29 -19 1
-22 -5 -25 -49 -4 -73 -6 -89 -14 -95 -4 -3 -9 -21 -11 -41 -2 -19 -6 -39 -9
-44 -5 -9 -19 -56 -23 -80 -1 -5 -3 -14 -5 -20 -5 -19 -7 -41 -8 -91 -2 -42
-6 -53 -22 -57 -16 -4 -20 0 -20 21 0 26 -1 25 -26 -11 l-26 -38 27 -54 c39
-80 148 -158 238 -171 23 -3 61 -12 85 -20 23 -8 65 -14 92 -14 27 0 51 -4 54
-9 8 -13 97 -22 110 -12 16 13 132 6 150 -8 13 -11 54 -14 251 -24 11 0 38 0
59 1 63 3 31 16 -41 17 -42 1 -68 6 -71 13 -2 7 -8 12 -13 12 -6 0 -7 -4 -4
-10 3 -5 -1 -10 -9 -10 -10 0 -16 9 -16 24 0 27 -33 56 -62 56 -9 0 -21 7 -26
16 -5 9 -13 15 -18 14 -5 -2 -14 8 -21 21 l-12 23 -12 -27 c-15 -33 -23 -34
-37 -2 -6 14 -18 25 -26 25 -8 0 -23 17 -33 38 -11 24 -25 37 -38 38 -27 1
-65 22 -65 34 0 6 -6 10 -12 10 -7 0 -19 4 -27 9 -12 8 -12 12 -2 24 7 10 8
17 2 21 -15 10 7 66 24 60 8 -3 16 4 20 17 7 23 51 69 66 69 4 0 10 9 14 19 4
13 12 17 27 13 14 -3 19 -1 14 6 -7 11 69 52 96 52 8 0 18 4 23 8 6 5 37 19
70 32 73 28 85 38 88 76 2 27 0 29 -33 26 -26 -2 -31 0 -20 7 8 6 25 11 38 11
12 0 22 5 22 10 0 6 7 10 15 10 45 0 106 309 74 372 -6 10 -5 19 1 23 5 3 10
34 10 68 0 60 -1 63 -43 102 -24 22 -47 47 -53 57 -8 15 -11 15 -33 -3z m-254
-535 c-3 -3 5 -18 19 -32 13 -15 22 -33 19 -42 -8 -24 49 -50 113 -51 44 -1
51 -3 32 -9 -14 -4 -40 -8 -57 -9 -18 -1 -33 -4 -33 -9 0 -10 -165 -53 -265
-68 -22 -4 -44 -10 -50 -14 -5 -4 -37 -15 -70 -25 -33 -9 -77 -24 -98 -33 -20
-8 -40 -12 -43 -9 -12 12 82 95 136 120 60 28 142 52 207 62 22 4 49 12 59 20
18 12 17 14 -9 26 -23 10 -25 14 -12 21 8 5 15 13 15 19 0 13 22 38 34 39 5 0
7 -3 3 -6z"/>
<path d="M1790 4130 c0 -5 5 -10 10 -10 6 0 10 5 10 10 0 6 -4 10 -10 10 -5 0
-10 -4 -10 -10z"/>
<path d="M2037 4093 c-13 -12 -7 -43 7 -43 19 0 28 14 20 34 -7 17 -16 20 -27
9z"/>
<path d="M1585 4055 c-31 -32 -33 -45 -3 -19 43 36 49 44 39 44 -5 0 -22 -11
-36 -25z"/>
<path d="M2125 4040 c-3 -5 -1 -10 4 -10 6 0 11 5 11 10 0 6 -2 10 -4 10 -3 0
-8 -4 -11 -10z"/>
<path d="M3403 3671 c-5 -20 -23 -30 -23 -13 0 12 -59 8 -93 -6 -16 -7 -37
-12 -47 -12 -11 0 -20 -10 -24 -25 -5 -21 -12 -25 -34 -23 -22 2 -27 -1 -24
-17 1 -11 3 -28 4 -37 5 -39 152 -65 184 -34 8 8 14 19 13 23 -6 37 4 55 38
69 31 14 43 14 77 3 23 -7 43 -16 46 -19 8 -8 89 -60 95 -60 3 0 5 9 5 19 0
13 -8 21 -22 23 -19 3 -23 8 -20 37 2 26 0 32 -10 24 -7 -5 -20 -13 -29 -16
-13 -4 -16 -1 -12 14 3 10 0 19 -6 19 -6 0 -11 -4 -11 -10 0 -5 -5 -10 -10
-10 -6 0 -8 11 -4 25 4 15 2 25 -5 25 -6 0 -11 -5 -11 -12 0 -9 -3 -9 -12 0
-9 9 -14 7 -24 -6 -12 -16 -13 -15 -14 5 0 30 -20 40 -27 14z"/>
<path d="M3203 3411 c1 -14 10 -22 29 -26 16 -4 41 -13 56 -20 33 -17 138 -45
167 -45 11 0 29 -6 40 -13 11 -8 43 -14 70 -15 46 -2 49 -1 31 13 -11 8 -26
15 -33 15 -7 0 -10 6 -7 14 3 8 -3 19 -13 24 -21 12 -222 57 -295 68 -43 6
-47 4 -45 -15z"/>
<path d="M4368 3093 c7 -3 16 -2 19 1 4 3 -2 6 -13 5 -11 0 -14 -3 -6 -6z"/>
<path d="M4311 3034 c0 -11 3 -14 6 -6 3 7 2 16 -1 19 -3 4 -6 -2 -5 -13z"/>
<path d="M3992 2993 c-16 -29 -27 -123 -14 -123 26 0 42 50 33 106 -6 37 -8
38 -19 17z"/>
<path d="M123 2986 c-24 -11 -41 -65 -28 -86 8 -14 85 63 85 85 0 17 -25 18
-57 1z"/>
<path d="M4314 2986 c-5 -13 -9 -14 -20 -5 -11 9 -14 8 -14 -4 0 -20 50 -29
57 -10 3 8 1 19 -5 25 -8 8 -13 7 -18 -6z"/>
<path d="M4394 2959 c-3 -6 -1 -16 5 -22 8 -8 11 -7 11 5 0 9 6 19 13 21 7 3
6 6 -5 6 -9 1 -20 -4 -24 -10z"/>
<path d="M4419 2879 c-19 -27 -20 -34 -8 -55 16 -31 70 -59 80 -42 10 16 3 88
-10 101 -8 8 -11 7 -11 -1 0 -7 -5 -12 -10 -12 -7 0 -7 6 0 20 18 33 -15 25
-41 -11z"/>
<path d="M4600 2829 c0 -5 5 -7 10 -4 6 3 10 8 10 11 0 2 -4 4 -10 4 -5 0 -10
-5 -10 -11z"/>
<path d="M4605 2680 c-3 -5 3 -10 14 -10 12 0 21 5 21 10 0 6 -6 10 -14 10 -8
0 -18 -4 -21 -10z"/>
<path d="M4556 2671 c-4 -5 -2 -12 3 -15 5 -4 12 -2 15 3 4 5 2 12 -3 15 -5 4
-12 2 -15 -3z"/>
<path d="M4951 2627 c-100 -25 -98 -24 -161 -160 -12 -26 -35 -61 -51 -76 -16
-16 -29 -32 -29 -36 0 -3 11 -30 24 -58 13 -29 26 -60 30 -70 5 -17 7 -17 28
-1 13 9 36 37 52 61 15 24 60 71 100 104 39 34 83 72 98 85 14 13 31 24 37 24
6 0 11 5 11 11 0 6 -8 8 -19 4 -22 -7 -39 24 -19 37 9 5 10 8 1 8 -6 0 -14 -4
-18 -10 -3 -5 -12 -7 -20 -4 -7 3 -22 1 -31 -4 -16 -9 -15 -10 5 -17 24 -7 26
-40 2 -40 -16 0 -54 62 -47 74 3 4 20 6 38 4 18 -1 27 0 20 3 -17 8 -5 24 18
24 13 0 17 5 14 14 -3 8 5 21 17 29 l22 16 -23 -2 c-13 -1 -57 -10 -99 -20z
m-26 -157 c-3 -5 -11 -10 -16 -10 -6 0 -7 5 -4 10 3 6 11 10 16 10 6 0 7 -4 4
-10z"/>
<path d="M4645 2630 c-3 -5 -23 -10 -43 -10 -48 0 -62 -10 -52 -36 14 -36 49
-37 81 -2 16 16 29 36 29 44 0 16 -6 18 -15 4z"/>
<path d="M4812 2618 c-7 -7 -12 -19 -12 -27 0 -11 5 -8 16 7 18 25 15 39 -4
20z"/>
<path d="M4752 2508 c-14 -14 -16 -28 -3 -28 5 0 11 9 14 20 6 23 5 24 -11 8z"/>
<path d="M4687 2393 c-10 -9 -9 -23 1 -23 5 0 17 7 28 15 19 14 19 14 -2 15
-11 0 -24 -3 -27 -7z"/>
<path d="M1684 2068 c-21 -48 -34 -68 -76 -115 -21 -24 -38 -49 -38 -57 0 -8
-13 -41 -29 -73 -16 -32 -34 -71 -40 -88 -6 -16 -31 -52 -56 -80 -46 -52 -55
-75 -30 -75 8 0 15 5 15 10 0 6 7 10 16 10 14 0 15 -7 11 -37 -4 -20 -11 -39
-16 -42 -12 -8 -33 -85 -34 -126 -4 -106 4 -185 17 -185 7 0 16 -8 20 -17 3
-10 21 -47 40 -82 20 -35 33 -68 30 -72 -3 -5 24 -39 60 -75 37 -37 66 -71 66
-76 0 -5 -4 -7 -8 -4 -5 3 -6 -8 -4 -24 3 -19 9 -27 18 -23 22 8 37 -6 23 -23
-8 -10 -8 -14 -1 -14 7 0 9 -7 5 -17 -4 -9 -2 -14 3 -10 6 3 16 2 23 -2 10 -7
10 -13 2 -29 -17 -32 -13 -42 14 -42 18 0 25 -5 25 -20 0 -11 5 -20 10 -20 6
0 10 5 10 11 0 5 5 7 10 4 6 -3 10 -15 10 -26 0 -15 7 -19 35 -19 39 0 39 1
25 -34 -7 -20 -6 -24 5 -19 8 3 15 0 15 -6 0 -6 -4 -11 -10 -11 -16 0 -11 -17
6 -24 10 -4 25 1 35 10 18 16 19 16 19 -2 0 -11 -5 -25 -12 -32 -9 -9 -8 -12
8 -13 10 -1 23 -1 28 0 5 1 16 -1 25 -4 13 -5 14 -7 1 -16 -12 -9 -11 -9 5 -4
50 19 73 17 80 -4 4 -12 2 -27 -3 -34 -13 -16 3 -57 23 -57 8 0 15 5 15 12 0
9 3 9 12 0 7 -7 21 -12 31 -12 16 0 17 -3 7 -15 -10 -12 -8 -21 7 -47 l19 -33
-28 -24 c-33 -27 -32 -36 4 -22 27 10 62 -4 52 -21 -9 -14 56 0 76 17 25 21
67 -6 120 -77 13 -16 27 -25 35 -21 11 4 15 -3 15 -26 0 -21 5 -31 15 -31 8 0
15 -3 15 -7 0 -5 4 -14 9 -22 7 -12 14 -10 36 8 34 26 41 26 88 1 35 -19 56
-20 463 -20 l425 0 105 104 c57 57 104 108 104 114 0 5 24 41 53 78 55 72 87
137 87 179 0 14 4 25 9 25 13 0 23 200 12 238 -8 27 -7 34 9 42 11 6 22 26 26
45 3 19 10 35 15 35 5 0 8 10 8 23 -1 16 -2 18 -6 5 -2 -10 -8 -18 -13 -18 -5
0 -15 -3 -24 -6 -23 -9 -20 18 4 39 11 9 22 17 25 17 3 0 21 16 42 36 20 20
39 31 41 25 8 -23 22 -10 16 16 -6 23 -4 25 13 21 19 -5 21 -1 21 61 1 81 19
188 38 216 7 11 18 59 23 105 5 47 17 100 26 117 9 18 14 37 10 43 -3 5 -2 10
4 10 16 0 1 98 -25 164 -13 33 -24 65 -24 72 0 7 -5 24 -11 38 l-12 25 -36
-40 c-36 -41 -52 -47 -242 -92 -15 -4 -29 -15 -32 -26 -4 -15 -17 -20 -73 -25
-38 -3 -80 -8 -94 -11 -106 -21 -138 -26 -160 -29 -14 -1 -36 -7 -50 -13 -45
-19 -159 -36 -173 -25 -13 11 -151 8 -180 -3 -9 -4 -23 -3 -30 2 -16 13 -131
10 -148 -4 -17 -13 -228 -7 -261 8 -22 10 -47 23 -78 44 -8 5 -22 8 -32 7 -9
-2 -19 2 -23 8 -3 5 -19 10 -34 10 -15 0 -32 5 -38 11 -6 6 -29 13 -51 14 -22
2 -68 17 -103 35 -36 18 -72 29 -83 26 -19 -5 -160 56 -171 75 -3 4 -28 19
-54 33 -62 31 -135 101 -154 149 -21 48 -52 51 -73 5z m2416 -374 c0 -8 -4
-12 -10 -9 -5 3 -10 13 -10 21 0 8 5 12 10 9 6 -3 10 -13 10 -21z m10 -54 c0
-16 -4 -30 -10 -30 -5 0 -10 14 -10 30 0 17 5 30 10 30 6 0 10 -13 10 -30z
m-2630 -395 c5 -11 11 -35 14 -52 5 -31 4 -32 -14 -21 -21 14 -26 28 -10 28 6
0 10 4 10 10 0 5 -7 7 -15 4 -12 -5 -15 2 -15 28 0 36 12 59 18 36 2 -7 7 -22
12 -33z m2340 -730 c0 -8 -4 -15 -10 -15 -5 0 -10 7 -10 15 0 8 5 15 10 15 6
0 10 -7 10 -15z m-50 -88 c-19 -28 -21 -29 -15 -7 3 14 12 36 18 49 10 19 13
21 15 7 2 -9 -6 -31 -18 -49z"/>
<path d="M2336 1851 c-4 -7 -5 -15 -2 -18 9 -9 19 4 14 18 -4 11 -6 11 -12 0z"/>
<path d="M101 1464 c1 -110 4 -185 8 -169 4 17 12 29 19 28 8 -2 12 12 13 40
0 23 3 36 6 29 3 -9 10 -4 19 13 8 15 11 31 8 37 -3 5 2 15 12 23 15 11 16 15
5 28 -7 9 -10 20 -7 26 4 5 -5 18 -19 29 -14 11 -25 27 -25 37 0 9 -5 13 -10
10 -7 -4 -9 2 -5 17 4 16 1 29 -9 37 -14 12 -16 -6 -15 -185z"/>
<path d="M1405 1190 c4 -6 11 -8 16 -5 14 9 11 15 -7 15 -8 0 -12 -5 -9 -10z"/>
<path d="M5200 1120 c0 -6 7 -10 15 -10 8 0 15 2 15 4 0 2 -7 6 -15 10 -8 3
-15 1 -15 -4z"/>
<path d="M5250 990 c0 -11 6 -20 14 -20 16 0 29 -43 21 -73 -2 -12 -2 -16 1
-9 3 6 12 12 20 12 20 0 17 23 -7 70 -22 42 -49 53 -49 20z"/>
<path d="M5316 864 c-4 -15 -5 -29 -2 -31 9 -9 26 8 26 27 0 30 -17 32 -24 4z"/>
<path d="M5337 806 c-3 -8 1 -20 9 -27 8 -6 14 -17 13 -23 -3 -27 2 -36 21
-36 15 0 20 -7 20 -24 0 -14 5 -28 10 -31 6 -3 10 -15 10 -26 0 -11 7 -30 15
-43 9 -13 15 -28 14 -32 -4 -25 2 -84 9 -84 5 0 7 19 6 43 -2 23 -3 65 -3 94
-1 47 -6 58 -53 120 -29 37 -51 70 -49 73 1 2 -2 6 -7 8 -5 1 -12 -4 -15 -12z"/>
<path d="M1860 501 c-6 -12 -7 -21 -1 -21 10 0 24 30 17 37 -2 3 -9 -5 -16
-16z"/>
<path d="M5504 330 c0 -52 1 -74 3 -47 2 26 2 68 0 95 -2 26 -3 4 -3 -48z"/>
<path d="M2060 220 c0 -5 5 -10 10 -10 6 0 10 5 10 10 0 6 -4 10 -10 10 -5 0
-10 -4 -10 -10z"/>
</g>
</svg>
